<?xml version="1.0" encoding="UTF-8"?>
<svg xmlns="http://www.w3.org/2000/svg" version="1.1" viewBox="0 0 274.9 115">
  <defs>
    <style>
      .cls-1 {
        fill: none;
        stroke: #303030;
        stroke-dasharray: 0 3;
        stroke-linecap: round;
        stroke-miterlimit: 10;
        stroke-width: 1.4px;
      }
    </style>
  </defs>
  <!-- Generator: Adobe Illustrator 28.6.0, SVG Export Plug-In . SVG Version: 1.2.0 Build 709)  -->
  <g>
    <g id="Layer_1">
      <g id="Layer_1-2" data-name="Layer_1">
        <line class="cls-1" x1="15.6" y1="30.6" x2="143.9" y2="13.8"/>
        <polyline class="cls-1" points="12.3 57.5 37.6 53.4 141.9 39.8"/>
        <line class="cls-1" x1="33.2" y1="25.7" x2="33.3" y2="7.9"/>
        <line class="cls-1" x1="29.9" y1="19.7" x2="17.5" y2="18.1"/>
        <polyline class="cls-1" points="37.5 54.9 31.7 66.2 32.4 76.2 119.9 65 130.2 66"/>
        <polyline class="cls-1" points="129.3 95.9 132.4 55.3 142.3 55.3 139.6 97.4"/>
        <line class="cls-1" x1="15.9" y1="113.8" x2="12.7" y2="91.2"/>
        <line class="cls-1" x1="35.3" y1="110.3" x2="31.3" y2="88.3"/>
        <line class="cls-1" x1="51.7" y1="109.3" x2="51" y2="82.2"/>
        <path class="cls-1" d="M68,105.7l.9-16.2c0-1.7,1.5-3.1,3.2-3.1l13.7-.2"/>
      </g>
      <line class="cls-1" x1="148.1" y1="43.8" x2="179" y2="43.8"/>
      <line class="cls-1" x1="150.1" y1="20.8" x2="182" y2="20.8"/>
    </g>
  </g>
</svg>